<?xml version="1.0" standalone="no"?>
<!DOCTYPE svg PUBLIC "-//W3C//DTD SVG 20010904//EN"
 "http://www.w3.org/TR/2001/REC-SVG-20010904/DTD/svg10.dtd">
<svg version="1.0" xmlns="http://www.w3.org/2000/svg"
 width="50.000000pt" height="60.000000pt" viewBox="0 0 50.000000 60.000000"
 preserveAspectRatio="xMidYMid meet">

<g transform="translate(0.000000,60.000000) scale(0.100000,-0.100000)"
fill="#000000" stroke="none">
<path d="M10 590 c8 -5 10 -10 4 -10 -7 0 -12 -29 -13 -80 l-2 -81 88 3 c84 3
89 2 105 -22 l18 -25 0 33 0 33 22 -21 c12 -11 35 -20 50 -20 16 0 27 -4 23
-9 -3 -5 -1 -12 5 -16 5 -3 10 -13 10 -21 0 -9 -5 -12 -12 -8 -6 4 -8 3 -5 -3
4 -6 -3 -22 -14 -37 -18 -23 -19 -25 -2 -19 10 4 39 21 65 39 26 18 53 34 60
37 10 3 8 10 -6 26 -13 14 -15 21 -6 21 7 0 10 3 6 7 -4 5 -14 -1 -22 -12 -13
-17 -16 -18 -24 -5 -13 20 -13 33 0 25 6 -3 10 -1 10 4 0 6 -7 11 -15 11 -9 0
-18 7 -21 15 -5 11 -10 12 -26 4 -25 -14 -32 -6 -35 39 -1 20 -7 38 -13 40
-17 6 -12 50 8 55 9 3 -48 5 -128 6 -97 0 -140 -3 -130 -9z m295 -160 c-10
-11 -21 -18 -23 -15 -3 3 3 12 14 20 27 20 30 18 9 -5z m55 -85 c0 -2 -9 -9
-20 -15 -16 -9 -18 -8 -14 5 5 13 34 22 34 10z"/>
<path d="M313 588 c10 -5 17 -21 17 -39 0 -18 4 -28 10 -24 6 3 10 -4 10 -17
0 -18 -2 -20 -10 -8 -8 12 -10 11 -10 -6 0 -31 19 -42 63 -38 20 1 37 0 37 -4
0 -4 13 -21 29 -38 16 -17 31 -39 34 -50 2 -10 5 39 6 109 l1 128 -102 -2
c-68 -1 -96 -4 -85 -11z"/>
<path d="M7 393 c-7 -14 -5 -93 3 -88 5 3 7 17 5 33 -3 32 2 45 17 36 6 -4 5
-10 -3 -16 -10 -7 -8 -8 9 -5 18 4 22 1 22 -18 0 -23 24 -40 41 -29 5 3 9 0 9
-5 0 -15 -32 -13 -53 4 -16 12 -21 11 -38 -6 -15 -15 -19 -33 -19 -86 0 -68 1
-68 40 -96 33 -23 38 -31 31 -50 -5 -13 -17 -22 -30 -21 -15 0 -18 -3 -11 -12
8 -8 6 -13 -5 -18 -11 -4 -14 -2 -9 6 4 7 3 8 -4 4 -31 -19 -4 -26 97 -26
l109 0 25 75 c14 41 22 75 17 75 -5 0 -11 -6 -13 -12 -4 -10 -6 -10 -6 0 -1 8
-11 23 -23 33 -23 20 -23 20 -1 10 31 -16 41 -13 18 5 -21 16 -28 73 -10 86 5
4 0 6 -13 5 -12 0 -22 -5 -22 -9 0 -4 -11 -8 -24 -8 -26 0 -39 21 -29 47 5 11
3 14 -6 8 -8 -4 -6 3 3 18 13 20 14 26 4 30 -8 3 -6 6 5 6 10 1 15 6 12 11
-10 16 -33 12 -37 -7 -3 -15 -4 -15 -20 0 -16 16 -17 16 -15 -2 0 -11 4 -18 8
-15 4 2 11 0 14 -6 4 -6 1 -9 -7 -8 -7 2 -12 -3 -10 -9 1 -7 -2 -13 -8 -13 -5
0 -10 11 -10 25 0 16 -6 25 -16 25 -9 0 -12 5 -8 13 4 6 4 9 -1 5 -4 -4 -14
-3 -21 3 -7 5 -14 6 -17 2z"/>
<path d="M187 350 c3 -11 7 -20 9 -20 2 0 4 9 4 20 0 11 -4 20 -9 20 -5 0 -7
-9 -4 -20z"/>
<path d="M482 300 c-15 -24 -15 -55 -2 -81 8 -15 7 -19 -5 -19 -10 0 -15 10
-15 30 0 17 -1 30 -2 30 -2 0 -19 -6 -38 -13 -32 -11 -35 -16 -37 -56 -1 -31
-12 -59 -36 -95 -19 -28 -39 -61 -46 -74 l-12 -22 106 0 105 0 0 71 c0 44 -4
68 -10 64 -5 -3 -10 -2 -10 4 0 5 -3 18 -6 28 -5 16 -4 16 10 -2 15 -18 16
-13 15 68 -1 48 -2 87 -3 87 -1 0 -7 -9 -14 -20z"/>
</g>
</svg>
